<?xml version="1.0" standalone="no"?><!DOCTYPE svg PUBLIC "-//W3C//DTD SVG 1.1//EN" "http://www.w3.org/Graphics/SVG/1.1/DTD/svg11.dtd"><svg class="icon" width="200px" height="200.00px" viewBox="0 0 1024 1024" version="1.1" xmlns="http://www.w3.org/2000/svg"><path d="M668.294737 334.147368c10.778947-21.557895 16.168421-45.810526 16.168421-72.757894 0-94.315789-78.147368-172.463158-172.463158-172.463158s-172.463158 78.147368-172.463158 172.463158c0 26.947368 5.389474 51.2 16.168421 72.757894L512 660.210526l156.294737-326.063158z" fill="#10ABFF" opacity=".4" /><path d="M512 355.705263c51.2 0 94.315789-43.115789 94.315789-94.315789S563.2 167.073684 512 167.073684s-94.315789 43.115789-94.315789 94.31579 43.115789 94.315789 94.315789 94.315789z m0-150.905263c29.642105 0 56.589474 24.252632 56.589474 56.589474 0 29.642105-24.252632 56.589474-56.589474 56.589473s-56.589474-24.252632-56.589474-56.589473c0-29.642105 24.252632-56.589474 56.589474-56.589474z" fill="#10ABFF" /><path d="M336.842105 339.536842l158.989474 328.757895c0 2.694737 2.694737 5.389474 5.389474 5.389474l2.694736 2.694736c2.694737 0 5.389474 2.694737 8.084211 2.694737 2.694737 0 5.389474 0 8.084211-2.694737l2.694736-2.694736 5.389474-5.389474 158.989474-331.452632v-2.694737c10.778947-24.252632 16.168421-48.505263 16.168421-75.452631 0-105.094737-86.231579-191.326316-191.326316-191.326316-105.094737 0-191.326316 86.231579-191.326316 191.326316 0 29.642105 5.389474 53.894737 16.168421 80.842105-2.694737-2.694737 0-2.694737 0 0zM512 107.789474c83.536842 0 153.6 70.063158 153.6 153.6 0 21.557895-2.694737 40.421053-10.778947 59.28421l-142.821053 296.421053-142.821053-296.421053c-8.084211-18.863158-10.778947-37.726316-10.778947-59.28421C358.4 177.852632 425.768421 107.789474 512 107.789474z" fill="#10ABFF" /><path d="M988.968421 910.821053v-2.694737-2.694737-2.694737l-134.736842-288.336842s0-2.694737-2.694737-2.694737l-2.694737-2.694737-2.694737-2.694737s-2.694737 0-2.694736-2.694736L695.242105 538.947368c-10.778947-5.389474-21.557895 0-24.252631 10.778948s0 21.557895 10.778947 24.252631l140.126316 59.284211 110.48421 237.136842-175.157894-75.452632-59.284211-156.294736c-2.694737-10.778947-13.473684-13.473684-24.252631-10.778948-10.778947 2.694737-13.473684 13.473684-10.778948 24.252632l56.589474 148.210526-188.631579 102.4v-83.536842c0-10.778947-8.084211-18.863158-18.863158-18.863158s-18.863158 8.084211-18.863158 18.863158v83.536842l-188.631579-102.4 56.589474-148.210526c2.694737-10.778947 0-21.557895-10.778948-24.252632-10.778947-2.694737-21.557895 0-24.252631 10.778948l-59.284211 156.294736-175.157894 75.452632 110.48421-237.136842 140.126316-59.284211c10.778947-5.389474 13.473684-16.168421 10.778947-24.252631-2.694737-10.778947-16.168421-13.473684-24.252631-10.778948l-145.51579 61.978948s-2.694737 0-2.694737 2.694737c0 0-2.694737 0-2.694736 2.694736l-2.694737 2.694737-2.694737 2.694737-134.736842 288.336842v13.473684c0 2.694737 2.694737 2.694737 2.694737 5.389474 2.694737 2.694737 2.694737 2.694737 5.389473 2.694737s5.389474 2.694737 8.084211 2.694737c2.694737 0 5.389474 0 8.08421-2.694737l218.273685-94.315789 223.663157 118.568421c2.694737 0 5.389474 2.694737 8.084211 2.694736H520.084211l223.663157-118.568421 218.273685 94.31579c2.694737 0 5.389474 2.694737 8.08421 2.694737 2.694737 0 5.389474 0 8.084211-2.694737 2.694737 0 2.694737-2.694737 5.389473-2.694737 0-2.694737 2.694737-2.694737 2.694737-5.389474 2.694737-2.694737 2.694737-2.694737 2.694737-5.389473z" fill="#10ABFF" /></svg>