<?xml version="1.0" standalone="no"?><!DOCTYPE svg PUBLIC "-//W3C//DTD SVG 1.1//EN" "http://www.w3.org/Graphics/SVG/1.1/DTD/svg11.dtd"><svg class="icon" width="200px" height="200.00px" viewBox="0 0 1024 1024" version="1.1" xmlns="http://www.w3.org/2000/svg"><path d="M956.631579 789.557895L538.947368 962.021053c-18.863158 8.084211-37.726316 8.084211-56.589473 0L67.368421 789.557895 512 617.094737l444.631579 172.463158z" fill="#10ABFF" opacity=".4" /><path d="M943.157895 202.105263L520.084211 35.031579h-13.473685-2.694737L80.842105 202.105263c-21.557895 8.084211-32.336842 26.947368-32.336842 48.505263v541.642106c0 2.694737 0 5.389474 2.694737 8.08421v2.694737s2.694737 2.694737 2.694737 5.389474h5.389474l417.68421 172.463158c10.778947 5.389474 24.252632 8.084211 37.726316 8.08421 13.473684 0 24.252632-2.694737 35.031579-8.08421L964.715789 808.421053h5.389474l5.389474-5.389474v-2.694737c0-2.694737 2.694737-5.389474 2.694737-8.08421V250.610526c-2.694737-21.557895-16.168421-40.421053-35.031579-48.505263z m-5.389474 48.505263v512l-406.905263-156.294737V80.842105l398.821053 156.294737c5.389474 2.694737 8.084211 8.084211 8.08421 13.473684zM94.315789 237.136842L493.136842 80.842105v525.473684L86.231579 765.305263v-512c0-8.084211 2.694737-13.473684 8.08421-16.168421z m439.242106 708.71579c-13.473684 5.389474-26.947368 5.389474-43.11579 0L118.568421 792.252632 512 641.347368l393.431579 150.905264-371.873684 153.6z" fill="#10ABFF" /></svg>