<?xml version="1.0" standalone="no"?><!DOCTYPE svg PUBLIC "-//W3C//DTD SVG 1.1//EN" "http://www.w3.org/Graphics/SVG/1.1/DTD/svg11.dtd"><svg class="icon" width="200px" height="200.00px" viewBox="0 0 1024 1024" version="1.1" xmlns="http://www.w3.org/2000/svg"><path d="M323.368421 266.778947a212.884211 191.326316 90 1 0 382.652632 0 212.884211 191.326316 90 1 0-382.652632 0Z" fill="#10ABFF" opacity=".4" /><path d="M517.389474 498.526316c115.873684 0 210.189474-105.094737 210.189473-231.747369 0-126.652632-94.315789-231.747368-210.189473-231.747368s-210.189474 105.094737-210.189474 231.747368c-2.694737 126.652632 91.621053 231.747368 210.189474 231.747369z m0-425.768421c94.315789 0 172.463158 86.231579 172.463158 194.021052s-78.147368 194.021053-172.463158 194.021053c-94.315789 0-172.463158-86.231579-172.463158-194.021053-2.694737-107.789474 75.452632-194.021053 172.463158-194.021052zM867.705263 611.705263s0-2.694737 0 0l-177.852631-78.147368c-29.642105-13.473684-64.673684-5.389474-88.926316 16.168421l-53.894737 53.894737c-8.084211 8.084211-18.863158 13.473684-32.336842 13.473684s-24.252632-5.389474-32.336842-13.473684l-53.894737-53.894737c-21.557895-24.252632-56.589474-29.642105-86.231579-18.863158l-185.936842 78.147368h-2.694737c-43.115789 26.947368-45.810526 53.894737-45.810526 88.926316v220.968421c0 37.726316 29.642105 67.368421 67.368421 67.368421h670.989473c37.726316 0 67.368421-29.642105 67.368421-67.368421V700.631579c0-35.031579-2.694737-61.978947-45.810526-88.926316z m8.084211 309.894737c0 16.168421-13.473684 29.642105-29.642106 29.642105H175.157895c-16.168421 0-29.642105-13.473684-29.642106-29.642105V700.631579c0-26.947368 0-40.421053 26.947369-56.589474l183.242105-78.147368c16.168421-5.389474 35.031579-2.694737 45.810526 8.08421l53.894737 53.894737c16.168421 16.168421 37.726316 24.252632 59.284211 24.252632 21.557895 0 43.115789-8.084211 59.28421-24.252632l53.894737-53.894737c10.778947-13.473684 29.642105-16.168421 45.810527-8.08421l172.463157 78.147368c26.947368 18.863158 26.947368 29.642105 26.947369 56.589474v220.968421z" fill="#10ABFF" /></svg>